HIERARCHY
ROOT Hips
{
	OFFSET -0.001795 -0.223333 0.028219
	CHANNELS 6 Xposition Yposition Zposition Zrotation Yrotation Xrotation 
	JOINT LeftUpLeg
	{
		OFFSET 0.069520 -0.091406 -0.006815
		CHANNELS 3 Zrotation Yrotation Xrotation
		JOINT LeftLeg
		{
			OFFSET 0.034277 -0.375199 -0.004496
			CHANNELS 3 Zrotation Yrotation Xrotation
			JOINT LeftFoot
			{
				OFFSET -0.013596 -0.397961 -0.043693
				CHANNELS 3 Zrotation Yrotation Xrotation
				JOINT LeftToe
				{
					OFFSET 0.026358 -0.055791 0.119288
					CHANNELS 3 Zrotation Yrotation Xrotation
					End Site
					{
						OFFSET 0.000000 0.000000 0.000000
					}
				}
			}
		}
	}
	JOINT RightUpLeg
	{
		OFFSET -0.067670 -0.090522 -0.004320
		CHANNELS 3 Zrotation Yrotation Xrotation
		JOINT RightLeg
		{
			OFFSET -0.038290 -0.382569 -0.008850
			CHANNELS 3 Zrotation Yrotation Xrotation
			JOINT RightFoot
			{
				OFFSET 0.015774 -0.398415 -0.042312
				CHANNELS 3 Zrotation Yrotation Xrotation
				JOINT RightToe
				{
					OFFSET -0.025372 -0.048144 0.123348
					CHANNELS 3 Zrotation Yrotation Xrotation
					End Site
					{
						OFFSET 0.000000 0.000000 0.000000
					}
				}
			}
		}
	}
	JOINT Spine
	{
		OFFSET -0.002533 0.108963 -0.026696
		CHANNELS 3 Zrotation Yrotation Xrotation
		JOINT Spine1
		{
			OFFSET 0.005487 0.135180 0.001092
			CHANNELS 3 Zrotation Yrotation Xrotation
			JOINT Spine2
			{
				OFFSET 0.001457 0.052922 0.025425
				CHANNELS 3 Zrotation Yrotation Xrotation
				JOINT Neck
				{
					OFFSET -0.002778 0.213870 -0.042857
					CHANNELS 3 Zrotation Yrotation Xrotation
					JOINT Head
					{
						OFFSET 0.005152 0.064970 0.051349
						CHANNELS 3 Zrotation Yrotation Xrotation
						End Site
						{
							OFFSET 0.000000 0.000000 0.000000
						}
					}
				}
				JOINT LeftShoulder
				{
					OFFSET 0.078845 0.121749 -0.034090
					CHANNELS 3 Zrotation Yrotation Xrotation
					JOINT LeftArm
					{
						OFFSET 0.090977 0.030469 -0.008868
						CHANNELS 3 Zrotation Yrotation Xrotation
						JOINT LeftForeArm
						{
							OFFSET 0.259612 -0.012772 -0.027456
							CHANNELS 3 Zrotation Yrotation Xrotation
							JOINT LeftHand
							{
								OFFSET 0.249234 0.008986 -0.001171
								CHANNELS 3 Zrotation Yrotation Xrotation
								End Site
								{
									OFFSET 0.000000 0.000000 0.000000
								}
							}
						}
					}
				}
				JOINT RightShoulder
				{
					OFFSET -0.081759 0.118833 -0.038615
					CHANNELS 3 Zrotation Yrotation Xrotation
					JOINT RightArm
					{
						OFFSET -0.096012 0.032551 -0.009143
						CHANNELS 3 Zrotation Yrotation Xrotation
						JOINT RightForeArm
						{
							OFFSET -0.253742 -0.013329 -0.021401
							CHANNELS 3 Zrotation Yrotation Xrotation
							JOINT RightHand
							{
								OFFSET -0.255298 0.007772 -0.005559
								CHANNELS 3 Zrotation Yrotation Xrotation
								End Site
								{
									OFFSET 0.000000 0.000000 0.000000
								}
							}
						}
					}
				}
			}
		}
	}
}
MOTION
Frames: 6
Frame Time: 0.050000
0.068653 0.946350 0.378023 1.514477 6.756230 11.604721 -1.124942 -1.307161 -13.182279 0.512597 0.145103 -5.226780 -0.297548 4.384786 10.439928 0.000000 0.000000 0.000000 -1.949698 1.061865 -12.336879 -0.296897 -0.260316 -6.617549 4.282894 4.080505 12.843836 0.000000 0.000000 0.000000 8.219177 -1.664699 9.942214 -0.650323 0.043633 5.064842 -6.063997 6.478222 3.901380 13.767981 -4.511999 -22.490644 0.000000 0.000000 0.000000 -26.341935 -34.549870 15.652330 -23.557087 -20.036770 1.396979 49.569462 -71.754735 -35.211073 0.000000 0.000000 0.000000 22.132500 24.431822 16.524686 24.758892 26.722343 1.310267 -30.302233 65.215725 -14.568676 0.000000 0.000000 0.000000 
0.068371 0.946290 0.380310 1.633497 6.702500 10.959669 -1.218071 -1.216572 -12.305262 0.599710 0.130566 -4.927060 -0.238745 4.179139 9.695719 0.000000 0.000000 0.000000 -2.114410 0.976492 -11.313545 -0.555074 -0.265451 -6.997204 4.841978 5.371691 12.380561 0.000000 0.000000 0.000000 8.496801 -1.534366 8.793778 -0.726030 0.092645 4.917928 -6.068747 5.773837 3.510245 13.524292 -4.499529 -22.250735 0.000000 0.000000 0.000000 -26.811489 -33.478610 15.219842 -23.775509 -19.382215 1.304655 46.864431 -73.070611 -33.769913 0.000000 0.000000 0.000000 23.399194 23.491002 16.029711 26.239779 25.547645 1.317342 -25.377512 67.037550 -11.958795 0.000000 0.000000 0.000000 
0.067874 0.946323 0.382090 1.837730 6.460044 10.506532 -1.445059 -1.164294 -11.709891 0.851788 0.113454 -4.808836 -0.215311 4.121860 9.513674 0.000000 0.000000 0.000000 -2.182557 0.915417 -10.523581 -0.820442 -0.261989 -7.193268 5.154133 6.011365 12.248785 0.000000 0.000000 0.000000 8.383673 -1.347515 7.601510 -0.613725 0.054562 4.637560 -5.820672 5.576817 3.604373 13.162941 -4.418436 -21.935912 0.000000 0.000000 0.000000 -27.710871 -32.776327 14.978744 -23.678761 -19.281486 1.285388 43.837498 -73.813735 -31.719620 0.000000 0.000000 0.000000 24.702481 22.589368 15.695175 26.876175 24.572278 1.170311 -21.218937 67.999157 -9.469593 0.000000 0.000000 0.000000 
0.067481 0.945943 0.383629 1.936670 6.125290 9.969098 -1.705632 -1.095887 -10.968650 1.262156 0.086298 -4.679077 -0.313343 3.722329 9.031121 0.000000 0.000000 0.000000 -2.133136 0.845843 -9.531295 -1.271424 -0.261094 -7.562005 5.576947 6.999471 11.845782 0.000000 0.000000 0.000000 8.495545 -1.207443 6.547499 -0.639199 0.066870 4.827329 -5.657335 5.052731 3.035862 12.974388 -4.461357 -21.529602 0.000000 0.000000 0.000000 -28.261711 -31.719109 14.561882 -23.764286 -18.905198 1.228373 40.445248 -74.616106 -29.345524 0.000000 0.000000 0.000000 25.573261 22.025926 15.265473 28.077916 23.626679 1.185217 -15.417759 68.867406 -5.827038 0.000000 0.000000 0.000000 
0.067232 0.945678 0.385003 1.833744 5.405225 9.563276 -1.776796 -1.011478 -10.178767 1.564442 0.077291 -4.876126 -0.136910 3.847474 8.761085 0.000000 0.000000 0.000000 -1.969741 0.807416 -8.893085 -1.460189 -0.279741 -8.024594 6.011686 7.659889 12.030672 0.000000 0.000000 0.000000 8.614622 -1.126469 5.952581 -0.543970 0.040409 4.708840 -5.309862 5.172231 3.061772 13.151765 -4.686455 -21.150360 0.000000 0.000000 0.000000 -28.568367 -31.109235 14.279397 -24.095159 -18.469600 1.169995 39.141561 -75.899994 -28.928506 0.000000 0.000000 0.000000 25.849785 21.283676 14.711595 28.961639 23.217325 1.212312 -9.914494 69.773354 -2.167473 0.000000 0.000000 0.000000 
0.067280 0.945227 0.386180 1.869888 4.608247 9.337484 -2.006330 -0.954616 -9.570098 1.893252 0.062362 -4.973349 -0.028858 3.805336 8.370260 0.000000 0.000000 0.000000 -1.991794 0.774781 -8.446439 -1.633730 -0.288156 -8.289787 6.524775 8.499651 12.150759 0.000000 0.000000 0.000000 8.925677 -1.051626 5.214050 -0.784521 0.172659 4.955061 -4.980575 4.980837 2.761479 13.247243 -4.792080 -21.182355 0.000000 0.000000 0.000000 -28.469182 -30.177915 13.861249 -24.199014 -17.753403 1.010879 38.776874 -77.597968 -29.397517 0.000000 0.000000 0.000000 26.540600 20.819519 14.288995 29.367333 22.829870 1.236150 -4.467879 70.134679 1.434323 0.000000 0.000000 0.000000 
